<?xml version="1.0" standalone="no"?>
<!DOCTYPE svg PUBLIC "-//W3C//DTD SVG 20010904//EN"
 "http://www.w3.org/TR/2001/REC-SVG-20010904/DTD/svg10.dtd">
<svg version="1.0" xmlns="http://www.w3.org/2000/svg"
 width="554.000000pt" height="265.000000pt" viewBox="0 0 554.000000 265.000000"
 preserveAspectRatio="xMidYMid meet">
<metadata>
Created by potrace 1.16, written by Peter Selinger 2001-2019
</metadata>
<g transform="translate(0.000000,265.000000) scale(0.100000,-0.100000)"
fill="#000000" stroke="none">
<path d="M5132 2619 c-10 -9 -87 -31 -232 -69 -69 -18 -181 -47 -250 -66 -69
-18 -136 -36 -150 -39 -59 -12 -406 -111 -419 -119 -12 -8 -36 -12 -111 -19
-14 -1 -28 -6 -31 -10 -4 -5 -24 -10 -47 -10 -22 -1 -38 -5 -35 -9 2 -5 -4 -9
-14 -10 -34 -2 -51 -8 -111 -34 -18 -8 -42 -14 -53 -14 -11 0 -93 -20 -182
-44 -89 -25 -192 -52 -229 -62 -38 -9 -68 -20 -68 -24 0 -4 -24 -10 -52 -13
-51 -6 -93 -14 -93 -17 0 -2 -30 -9 -55 -14 -8 -2 -22 -6 -31 -10 -8 -4 -29
-8 -45 -9 -16 -1 -31 -5 -34 -9 -3 -3 -68 -23 -145 -43 -77 -20 -216 -57 -309
-81 -93 -25 -178 -47 -190 -48 -11 -2 -33 -8 -48 -14 -27 -11 -138 -41 -463
-127 -99 -26 -184 -50 -190 -53 -5 -3 -18 -7 -30 -8 -22 -2 -304 -77 -375
-100 -25 -7 -58 -15 -75 -18 -34 -4 -67 -16 -75 -27 -3 -3 -24 -9 -46 -12 -45
-6 -132 -29 -518 -132 -136 -37 -258 -68 -270 -69 -11 -2 -34 -8 -49 -15 -16
-6 -36 -11 -46 -11 -28 0 -54 -34 -43 -57 18 -36 35 -88 34 -110 0 -13 4 -23
10 -23 5 0 6 -5 3 -10 -3 -6 -2 -10 4 -10 9 0 28 -94 23 -114 -2 -4 3 -15 10
-23 7 -8 13 -20 14 -27 2 -6 6 -22 9 -36 4 -14 11 -43 16 -65 14 -58 14 -59
22 -72 4 -7 9 -27 11 -45 5 -45 17 -91 28 -104 5 -7 11 -40 15 -75 3 -35 11
-68 19 -74 18 -14 89 -299 79 -322 -2 -8 2 -16 10 -19 8 -4 13 -10 10 -14 -3
-4 3 -17 13 -29 12 -15 24 -19 40 -15 12 4 22 10 22 15 0 4 19 13 43 19 23 6
49 14 57 17 22 9 42 14 70 18 26 5 290 76 373 101 26 8 52 12 57 9 6 -4 10 -2
10 3 0 5 12 12 27 14 24 4 663 173 905 239 42 12 82 18 89 14 8 -5 10 -4 5 3
-4 7 -1 12 9 12 8 0 23 4 33 9 9 6 49 17 87 25 39 9 104 25 145 37 118 33
1042 279 1069 285 14 3 29 8 34 11 5 3 34 11 65 18 32 7 98 24 147 37 50 14
299 80 555 148 256 68 471 130 478 137 7 7 30 13 50 13 20 0 87 14 147 31 200
55 340 92 355 94 8 1 22 5 30 8 17 7 175 48 199 52 9 1 19 -3 23 -9 5 -7 8 -5
8 5 0 10 12 19 30 23 28 5 30 9 30 49 0 23 -6 51 -14 62 -7 11 -12 29 -10 40
4 28 -15 95 -32 113 -9 8 -14 26 -13 41 2 29 -9 80 -22 97 -5 6 -10 20 -12 32
-2 12 -6 25 -10 28 -4 4 -7 18 -7 30 0 13 -9 47 -21 76 -11 29 -21 76 -21 103
0 28 -3 43 -6 36 -6 -19 -62 162 -64 212 -1 20 -5 37 -8 37 -3 0 -7 12 -8 27
-1 15 -5 29 -10 32 -4 3 -9 13 -10 21 -11 44 -13 59 -19 100 -3 25 -10 48 -16
51 -5 4 -7 12 -3 18 11 18 -82 27 -102 10z m14 -677 c60 -224 101 -362 111
-369 13 -10 14 -13 2 -17 -19 -6 -147 -36 -153 -36 -3 0 -22 32 -42 71 -21 39
-43 73 -51 76 -7 3 -10 9 -8 14 8 13 -24 71 -35 64 -6 -4 -9 2 -8 12 3 18 -80
189 -88 181 -3 -4 46 -164 66 -213 4 -11 14 -46 21 -77 9 -42 18 -59 32 -64
14 -4 16 -8 7 -14 -8 -5 -10 -19 -6 -43 6 -34 6 -35 -43 -51 -65 -21 -78 -20
-84 5 -4 16 -11 20 -24 15 -17 -6 -17 -5 -1 7 16 12 15 20 -10 113 -14 54 -30
102 -35 105 -4 3 -10 26 -11 50 -2 24 -8 45 -14 47 -6 2 -9 9 -6 16 3 7 -5 48
-16 92 -31 116 -29 112 -43 93 -7 -9 -21 -18 -32 -21 -16 -3 -20 -11 -19 -46
0 -25 8 -50 19 -62 10 -11 13 -20 7 -20 -9 0 6 -83 21 -107 3 -4 12 -52 22
-106 25 -153 0 -233 -88 -279 -64 -33 -142 -31 -197 6 -26 17 -57 29 -74 28
-30 0 -31 0 -9 15 l21 14 -23 52 c-13 29 -36 95 -51 147 -15 52 -31 97 -35 98
-5 2 -9 17 -9 32 0 16 -7 59 -15 95 -38 162 -11 268 78 313 111 57 213 22 273
-94 17 -33 33 -66 35 -73 6 -17 79 24 79 44 0 8 -11 56 -25 107 -14 51 -25 94
-25 96 0 1 8 2 18 2 10 0 26 6 37 13 11 6 37 12 58 12 l39 0 114 -210 c62
-115 114 -207 114 -203 0 4 -13 49 -30 100 -56 177 -100 342 -92 349 4 4 30
12 57 16 46 8 51 7 63 -14 7 -13 56 -184 108 -381z m-1133 124 c45 -19 92 -72
121 -136 48 -106 126 -420 126 -507 0 -52 -26 -118 -56 -145 -35 -31 -97 -51
-149 -49 -131 7 -179 86 -275 459 -6 23 -15 40 -19 37 -10 -6 -21 19 -20 43 0
14 2 13 9 -3 6 -12 7 11 3 62 -7 96 9 152 56 197 53 51 141 69 204 42z m-490
-46 c23 -9 37 -21 37 -31 0 -10 5 -21 11 -25 8 -5 8 -8 0 -14 -7 -4 -1 -11 15
-19 25 -11 26 -11 14 5 -13 14 -12 16 5 12 12 -2 20 -12 20 -23 1 -11 13 -45
27 -75 15 -30 30 -67 33 -81 6 -25 3 -27 -42 -38 -26 -7 -55 -14 -64 -17 -11
-3 -19 7 -27 35 -14 46 -33 64 -64 59 -19 -2 -23 -10 -26 -45 -4 -55 20 -80
133 -138 49 -25 102 -57 116 -71 74 -71 112 -255 71 -346 -28 -64 -57 -80
-154 -86 -69 -4 -83 -2 -107 16 l-28 21 -12 -26 c-16 -35 -25 -22 -13 20 6 22
6 39 1 44 -13 13 -59 145 -53 154 2 4 18 10 34 14 16 4 34 14 40 23 5 10 10
12 10 5 0 -7 9 -12 21 -10 16 2 24 -7 36 -43 18 -52 39 -80 63 -80 25 0 40 21
40 57 0 30 -2 32 -20 21 -28 -18 -39 0 -12 21 l23 17 -26 24 c-14 13 -67 47
-118 75 -72 41 -99 62 -124 99 -77 113 -84 265 -16 333 11 11 23 28 27 38 5
14 9 16 14 7 6 -9 18 -9 46 -1 22 6 50 9 63 6 13 -2 26 -1 29 4 10 16 -16 48
-43 51 -14 2 -28 9 -31 17 -2 7 -1 12 4 10 5 -2 26 -11 47 -19z m-592 -263
c19 -13 41 -21 48 -19 10 3 12 -1 8 -12 -4 -9 0 -27 8 -40 12 -18 55 -130 55
-142 0 -2 -25 -11 -55 -19 -53 -16 -55 -18 -55 -50 0 -21 -6 -38 -16 -43 -9
-5 -14 -14 -11 -19 4 -6 35 -2 82 10 46 12 79 17 84 11 8 -8 105 -359 113
-408 2 -15 -6 -22 -44 -32 -44 -11 -48 -10 -54 8 -5 18 -9 17 -35 -16 -56 -67
-144 -67 -211 0 l-33 32 -10 -44 c-13 -59 -28 -60 -36 -4 -3 25 -7 39 -7 33
-1 -7 -6 -13 -11 -13 -6 0 -6 12 0 30 12 33 18 36 38 18 17 -16 16 -11 -35
130 -28 78 -39 100 -46 88 -5 -9 -6 -21 -3 -26 3 -6 -1 -10 -9 -10 -19 0 -21
11 -5 27 17 17 14 81 -9 178 -43 181 -22 285 68 332 59 31 135 31 181 0z
m-411 -92 c0 -8 3 -15 8 -15 4 0 8 -12 9 -27 0 -15 6 -29 12 -31 5 -2 8 -9 5
-16 -3 -7 36 -164 85 -349 50 -184 91 -337 91 -340 0 -3 -23 -10 -50 -17 -28
-7 -54 -19 -59 -28 -15 -26 -42 11 -121 161 -39 75 -76 137 -81 137 -5 0 -12
12 -15 28 -7 29 -52 122 -58 122 -8 0 57 -185 66 -188 4 -2 6 -7 4 -11 -3 -4
10 -63 29 -131 19 -68 35 -129 35 -135 0 -7 -27 -18 -60 -25 -56 -12 -62 -11
-74 6 -8 10 -12 22 -9 27 7 12 -19 107 -29 101 -4 -3 -5 1 -3 9 3 7 -31 150
-76 318 -45 167 -82 308 -83 313 -1 8 24 16 116 39 30 8 22 20 168 -251 45
-84 84 -152 86 -150 1 2 -13 53 -32 113 -19 61 -48 158 -64 217 l-28 108 41
10 c23 6 47 13 52 15 22 8 35 4 35 -10z m-518 -77 c-21 -21 -13 -38 17 -38 27
0 30 -4 49 -76 15 -53 28 -81 46 -95 29 -23 34 -49 10 -49 -12 0 -15 -6 -11
-22 55 -217 83 -308 94 -308 7 0 13 -5 13 -11 0 -5 -4 -7 -10 -4 -14 8 -13 -2
6 -65 9 -32 19 -49 23 -41 4 6 15 9 24 5 21 -8 12 -24 -13 -24 -18 0 -18 -3
-5 -47 8 -26 11 -51 7 -54 -9 -10 -125 -39 -130 -34 -3 2 -22 68 -44 147 -21
79 -42 150 -45 158 -4 8 -7 22 -8 30 -4 37 -29 120 -36 120 -4 0 -11 -5 -14
-10 -4 -6 -11 -8 -16 -5 -15 10 -10 23 9 21 13 -1 17 6 15 29 -1 17 -6 39 -11
50 -5 11 -21 71 -37 134 -29 116 -27 130 13 131 6 0 11 4 10 9 -4 12 42 74 50
67 3 -4 0 -12 -6 -18z m-145 -125 c26 -28 43 -54 41 -65 -3 -16 -9 -13 -42 19
-36 35 -39 36 -33 13 48 -188 74 -270 83 -266 6 2 16 0 22 -6 8 -8 7 -15 -5
-23 -15 -11 -14 -21 12 -120 l28 -107 19 23 19 24 -16 -33 c-14 -29 -14 -38
-1 -87 9 -37 23 -63 41 -77 20 -16 24 -23 13 -29 -10 -6 -9 -11 7 -23 20 -15
19 -15 -5 -14 -14 1 -51 -6 -83 -16 -32 -9 -61 -14 -66 -12 -7 5 -14 25 -27
85 -10 48 -17 65 -29 78 -8 8 -15 22 -15 31 0 15 2 15 10 2 13 -18 12 -16 -46
210 -23 91 -43 161 -43 155 -1 -5 8 -84 20 -175 11 -91 20 -172 20 -180 0 -8
5 -59 11 -113 8 -67 14 -94 20 -83 12 22 28 20 28 -4 0 -11 -6 -20 -12 -20 -7
0 -22 -18 -32 -40 -21 -44 -52 -78 -39 -44 3 10 14 30 22 44 15 22 15 24 -1
18 -9 -4 -32 -9 -50 -13 -31 -5 -34 -3 -50 32 -9 21 -60 139 -114 263 -53 124
-100 229 -105 233 -4 5 0 -17 9 -50 9 -32 19 -60 23 -63 3 -3 6 -12 6 -20 0
-19 37 -155 54 -195 6 -16 13 -39 15 -50 2 -11 12 -51 24 -90 26 -92 26 -100
-8 -102 -16 -1 -47 -8 -70 -16 -23 -8 -39 -11 -37 -6 7 11 -86 353 -97 357 -4
2 -6 8 -3 12 3 5 -7 54 -21 110 -24 87 -31 101 -52 107 -17 4 -20 8 -11 14 7
4 17 5 22 2 5 -3 7 3 4 13 -31 106 -48 177 -44 181 7 6 188 55 192 51 1 -2 42
-93 90 -203 82 -187 105 -233 105 -209 0 5 -11 106 -24 224 -23 207 -37 262
-68 281 -10 7 -10 9 2 9 8 0 24 -12 35 -26 l21 -27 79 19 c43 10 83 24 89 31
15 17 14 18 63 -34z m-708 -126 c-40 -31 -39 -49 6 -92 30 -29 51 -64 71 -117
21 -54 33 -73 44 -70 13 4 13 3 2 -10 -11 -13 -9 -30 11 -99 21 -72 25 -80 35
-63 6 10 12 14 12 7 0 -6 -5 -15 -11 -19 -11 -6 -9 -25 13 -127 9 -43 12 -46
26 -35 15 12 16 11 2 -6 -8 -10 -17 -47 -21 -83 -4 -40 -14 -75 -26 -92 -25
-34 -80 -71 -115 -78 -16 -3 -28 -12 -28 -21 0 -14 -1 -14 -12 0 -7 9 -30 18
-51 21 -22 3 -54 18 -73 32 -39 30 -93 135 -120 235 -10 36 -25 70 -33 77 -9
7 -11 13 -5 13 7 0 2 36 -14 103 -14 58 -25 134 -26 177 -1 64 3 82 27 125 15
27 27 46 27 42 0 -4 17 2 37 13 21 11 43 20 50 20 7 0 13 4 13 8 0 5 20 6 44
2 40 -6 48 -4 73 21 15 15 35 28 43 28 13 0 13 -1 -1 -12z m-526 -181 c56 -23
126 -126 143 -212 6 -30 5 -30 -61 -46 -65 -15 -68 -15 -73 4 -12 49 -48 103
-70 106 -30 5 -55 -23 -54 -59 1 -41 12 -89 20 -89 4 -1 30 -7 57 -14 34 -9
54 -10 63 -4 9 8 12 5 12 -12 0 -17 -4 -21 -17 -15 -32 13 -113 18 -113 7 0
-20 71 -256 90 -299 16 -36 23 -43 47 -43 16 0 34 5 41 12 13 13 17 84 5 91
-5 3 -8 24 -8 47 l0 43 62 17 61 17 11 -24 c6 -13 11 -32 11 -43 0 -10 3 -21
8 -24 4 -2 7 -41 6 -85 0 -63 3 -81 14 -86 12 -4 13 -8 3 -18 -9 -9 -13 -9
-19 0 -5 8 -14 1 -26 -22 -13 -24 -36 -43 -73 -61 -102 -50 -203 -18 -261 82
-53 92 -142 428 -142 537 0 71 14 112 53 155 14 15 16 22 7 22 -12 0 -12 2 -1
13 10 9 15 9 18 0 3 -9 12 -8 36 2 41 18 109 19 150 1z"/>
<path d="M4390 2030 c-11 -11 -20 -23 -20 -27 0 -16 32 -160 46 -209 13 -45
18 -51 37 -47 l22 4 -21 -13 -22 -13 24 -80 c13 -44 32 -91 43 -105 32 -44 91
-28 91 25 0 38 -23 125 -32 125 -5 0 -6 5 -3 10 7 12 -60 261 -82 305 -26 50
-51 57 -83 25z"/>
<path d="M3912 1908 c-20 -20 -14 -86 24 -227 51 -197 73 -261 90 -261 8 0 17
7 20 15 7 17 43 39 51 31 3 -2 -11 -19 -32 -37 -32 -28 -34 -34 -20 -42 11 -6
26 -5 42 2 21 10 24 17 22 58 -4 86 -98 422 -127 456 -17 20 -53 22 -70 5z"/>
<path d="M2809 1614 c-15 -18 -6 -87 31 -223 26 -94 31 -93 57 17 22 93 20
122 -8 145 -16 13 -19 21 -11 26 9 5 8 13 -4 29 -18 26 -46 29 -65 6z"/>
<path d="M2896 1286 c-15 -24 -16 -34 -6 -73 18 -75 47 -123 73 -123 13 0 28
5 35 12 15 15 14 70 -1 123 -11 34 -16 39 -42 40 -22 0 -30 6 -35 24 l-6 24
-18 -27z"/>
<path d="M990 1121 c-5 -11 -10 -30 -10 -43 0 -41 63 -277 74 -275 6 1 9 -14
7 -37 -2 -27 1 -36 9 -31 7 5 11 1 9 -11 -5 -34 12 -81 36 -104 21 -20 29 -22
49 -12 13 6 26 22 28 37 5 26 -20 163 -39 214 -9 23 -10 23 -31 -13 -31 -52
-48 -36 -19 17 12 23 26 45 30 48 11 8 -50 194 -69 214 -21 21 -61 19 -74 -4z"/>
</g>
</svg>
