<?xml version="1.0"?>
<svg xmlns="http://www.w3.org/2000/svg" viewBox="0 0 512 512" width="512" height="512"><g id="out_lline" data-name="out lline"><path d="M424,248H408v-8a8,8,0,0,0-8-8H368a8,8,0,0,0-8,8v8H344a8,8,0,0,0-8,8V384a8,8,0,0,0,8,8h80a8,8,0,0,0,8-8V256A8,8,0,0,0,424,248Zm-8,128H352V360h64Zm0-32H352V328h64Zm0-32H352V296h64Zm0-32H352V264h16a8,8,0,0,0,8-8v-8h16v8a8,8,0,0,0,8,8h16Z"/><path d="M391.155,91.578l8-16A8,8,0,0,0,392,64h-3.056l2.211-4.422a8,8,0,1,0-14.31-7.156l-8,16A8,8,0,0,0,376,80h3.056l-2.211,4.422a8,8,0,1,0,14.31,7.156Z"/><rect x="152" y="368" width="32" height="16"/><path d="M496,448H472V423a15.009,15.009,0,0,0-8-13.257V172a36.04,36.04,0,0,0-36-36H392v-8.581a56,56,0,1,0-16,0V136H340a36.04,36.04,0,0,0-36,36v12a32.036,32.036,0,0,0-32,32v77.519A32.244,32.244,0,0,0,254.06,288H176.88a32.014,32.014,0,0,0-20.826,7.706L109.041,336H78.62A62.691,62.691,0,0,0,16,398.62V424a8,8,0,0,0,8,8H56.805a39.835,39.835,0,0,0,7.217,16H16a8,8,0,0,0-8,8v32a8,8,0,0,0,8,8H496a8,8,0,0,0,8-8V456A8,8,0,0,0,496,448ZM344,72a40,40,0,1,1,40,40A40.045,40.045,0,0,1,344,72ZM320,172a20.023,20.023,0,0,1,20-20h88a20.023,20.023,0,0,1,20,20V408H320Zm-8,252H456v24H312ZM288,216a16.019,16.019,0,0,1,16-16V324.686l-16-16Zm0,115.314L292.686,336H288ZM224,304h30.06a16.1,16.1,0,0,1,11.313,4.688L272,315.314V336H224Zm0,48h48a15.951,15.951,0,0,1-5.447,12,16,16,0,1,0,4.924,16A32.022,32.022,0,0,0,288,352h16v57.743A15.1,15.1,0,0,0,297.743,416H224Zm72,80v16H127.978a39.835,39.835,0,0,0,7.217-16ZM166.467,307.854A16,16,0,0,1,176.88,304H208v32H133.627ZM56.805,416H32V398.62A46.418,46.418,0,0,1,34.361,384H56a8,8,0,0,0,0-16H43.511A46.512,46.512,0,0,1,78.62,352H208v64H135.2a40,40,0,0,0-78.39,0Zm63.2,8a24,24,0,1,1-24-24A24.028,24.028,0,0,1,120,424Zm368,56H24V464H488Z"/><path d="M420,168H348a12.013,12.013,0,0,0-12,12v24a12.013,12.013,0,0,0,12,12h72a12.013,12.013,0,0,0,12-12V180A12.013,12.013,0,0,0,420,168Zm-4,32H352V184h64Z"/></g></svg>
